PathFileType	4	(X/Y/Z)	two_link_01.trc																
DataRate	CameraRate	NumFrames	NumMarkers	Units	OrigDataRate	OrigDataStartFrame	OrigNumFrames												
60	60	26	6	m	60	1	2526												
Frame#	Time	Link2_Marker_1			Link2_Marker_2			Link2_Marker_3			Link1_Marker_1			Link1_Marker_2			Link1_Marker_3		
		X1	Y1	Z1	X2	Y2	Z2	X3	Y3	Z3	X4	Y4	Z4	X5	Y5	Z5	X6	Y6	Z6
																			
1	0	-0.1479899	0.4479899	0	-0.1479899	0.4479899	0.1	-0.21870058	0.37727922	0	0.05	0.25	0	0.05	0.25	0.1	0	0	90.00000018
2	0.00000536	-0.14798989	0.44798991	0	-0.14798989	0.44798991	0.1	-0.21870057	0.37727924	0	0.05	0.25	0	0.05	0.25	0.1	0	0	90.00000018
3	0.00000901	-0.14798985	0.44798996	0	-0.14798985	0.44798996	0.1	-0.21870055	0.3772793	0	0.04999999	0.25	0	0.04999999	0.25	0.1	0	0	90.0000019
4	0.00001126	-0.1479898	0.44799002	0	-0.1479898	0.44799002	0.1	-0.21870052	0.37727938	0	0.04999998	0.25	0	0.04999998	0.25	0.1	0	0	90.00000419
5	0.00001431	-0.1479897	0.44799013	0	-0.1479897	0.44799013	0.1	-0.21870046	0.37727954	0	0.04999996	0.25	0	0.04999996	0.25	0.1	0	0	90.00000821
6	0.00002953	-0.14798863	0.4479914	0	-0.14798863	0.4479914	0.1	-0.21869984	0.37728125	0	0.04999977	0.25	0	0.04999977	0.25	0.1	0	0	90.00005232
7	0.00010562	-0.14796884	0.44801476	0	-0.14796884	0.44801476	0.1	-0.2186884	0.37731296	0	0.04999619	0.25	0	0.04999619	0.25	0.1	0	0	90.00087223
8	0.00048608	-0.14750829	0.44855692	0	-0.14750829	0.44855692	0.1	-0.21842148	0.37804933	0	0.04991295	0.24999998	0	0.04991295	0.24999998	0.1	0	0	90.01995115
9	0.001	-0.14591976	0.45040421	0	-0.14591976	0.45040421	0.1	-0.2174928	0.38056653	0	0.04962573	0.24999972	0	0.04962573	0.24999972	0.1	0	0	90.08577598
10	0.00100921	-0.14588122	0.45044855	0	-0.14588122	0.45044855	0.1	-0.21747009	0.38062712	0	0.04961881	0.24999971	0	0.04961881	0.24999971	0.1	0	0	90.08736307
11	0.00101473	-0.14585815	0.45047498	0	-0.14585815	0.45047498	0.1	-0.21745646	0.38066323	0	0.04961477	0.2499997	0	0.04961477	0.2499997	0.1	0	0	90.0882884
12	0.00102026	-0.14583514	0.45050124	0	-0.14583514	0.45050124	0.1	-0.21744283	0.3806991	0	0.04961085	0.2499997	0	0.04961085	0.2499997	0.1	0	0	90.08918737
13	0.00104788	-0.14572083	0.45062995	0	-0.14572083	0.45062995	0.1	-0.2173745	0.38087501	0	0.04959299	0.24999967	0	0.04959299	0.24999967	0.1	0	0	90.09327943
14	0.00118598	-0.14516906	0.45120962	0	-0.14516906	0.45120962	0.1	-0.21702979	0.38166801	0	0.04954746	0.24999959	0	0.04954746	0.24999959	0.1	0	0	90.10371471
15	0.00187649	-0.1429245	0.45253114	0	-0.1429245	0.45253114	0.1	-0.21525717	0.38348055	0	0.05041716	0.24999965	0	0.05041716	0.24999965	0.1	0	0	89.90439415
16	0.002	-0.14261567	0.45249222	0	-0.14261567	0.45249222	0.1	-0.21493474	0.38342737	0	0.05076589	0.24999883	0	0.05076589	0.24999883	0.1	0	0	89.82447113
17	0.00200896	-0.1425943	0.45248642	0	-0.1425943	0.45248642	0.1	-0.21491133	0.38341944	0	0.05079324	0.24999874	0	0.05079324	0.24999874	0.1	0	0	89.81820354
18	0.00201575	-0.14257811	0.45248223	0	-0.14257811	0.45248223	0.1	-0.21489366	0.38341371	0	0.05081375	0.24999868	0	0.05081375	0.24999868	0.1	0	0	89.81350185
19	0.00202254	-0.14256193	0.45247826	0	-0.14256193	0.45247826	0.1	-0.21487609	0.38340829	0	0.05083401	0.24999861	0	0.05083401	0.24999861	0.1	0	0	89.80885917
20	0.0020565	-0.14248123	0.45246191	0	-0.14248123	0.45246191	0.1	-0.21478967	0.38338595	0	0.05093147	0.24999826	0	0.05093147	0.24999826	0.1	0	0	89.78652184
21	0.0022263	-0.14208259	0.45246687	0	-0.14208259	0.45246687	0.1	-0.21439344	0.38339342	0	0.05132307	0.2499965	0	0.05132307	0.2499965	0.1	0	0	89.6967743
22	0.003	-0.14036193	0.45431917	0	-0.14036193	0.45431917	0.1	-0.2133339	0.38594453	0	0.05108705	0.24999764	0	0.05108705	0.24999764	0.1	0	0	89.75086553
23	0.00300981	-0.1403409	0.45436141	0	-0.1403409	0.45436141	0.1	-0.21332792	0.38600284	0	0.0510631	0.24999774	0	0.0510631	0.24999774	0.1	0	0	89.75635504
24	0.00305887	-0.14023481	0.45456608	0	-0.14023481	0.45456608	0.1	-0.21329477	0.38628547	0	0.0509509	0.24999819	0	0.0509509	0.24999819	0.1	0	0	89.78206824
25	0.00310794	-0.1401271	0.45475918	0	-0.1401271	0.45475918	0.1	-0.2132559	0.38655229	0	0.05085218	0.24999855	0	0.05085218	0.24999855	0.1	0	0	89.80469434
26	0.00335324	-0.13956541	0.45555235	0	-0.13956541	0.45555235	0.1	-0.21297719	0.38765014	0	0.05056079	0.24999937	0	0.05056079	0.24999937	0.1	0	0	89.87147658
